<svg width="2987" height="2987" viewBox="0 0 2987 2987" fill="none" xmlns="http://www.w3.org/2000/svg">
<g filter="url(#filter0_d_17_33)">
<line x1="1032.26" y1="1221.48" x2="585.475" y2="1564.59" stroke="url(#paint0_linear_17_33)" stroke-width="35"/>
<line x1="1024.56" y1="1241.44" x2="442.01" y2="1041.5" stroke="url(#paint1_linear_17_33)" stroke-width="35"/>
<line x1="1013.4" y1="1241.61" x2="1402.18" y2="1525.47" stroke="url(#paint2_linear_17_33)" stroke-width="35"/>
<line x1="1419.47" y1="890.433" x2="791.262" y2="618.908" stroke="url(#paint3_linear_17_33)" stroke-width="35"/>
<line x1="1413.48" y1="881.091" x2="1707.23" y2="558.963" stroke="url(#paint4_linear_17_33)" stroke-width="35"/>
<line x1="2046.06" y1="785.193" x2="1702.95" y2="553.162" stroke="url(#paint5_linear_17_33)" stroke-width="35"/>
<line x1="2034.18" y1="787.927" x2="2508.12" y2="585.517" stroke="url(#paint6_linear_17_33)" stroke-width="35"/>
<line x1="2050.01" y1="788.986" x2="2559.74" y2="1092.6" stroke="url(#paint7_linear_17_33)" stroke-width="35"/>
<line x1="2039.51" y1="774.961" x2="1914.86" y2="1271.11" stroke="url(#paint8_linear_17_33)" stroke-width="35"/>
<line x1="1402.5" y1="878.991" x2="1919.63" y2="1275.17" stroke="url(#paint9_linear_17_33)" stroke-width="35"/>
<line x1="2325.15" y1="1524.59" x2="1925.26" y2="1260.47" stroke="url(#paint10_linear_17_33)" stroke-width="35"/>
<line x1="1410" y1="1523.93" x2="1927.13" y2="1267.22" stroke="url(#paint11_linear_17_33)" stroke-width="35"/>
<line x1="1027.72" y1="1249.56" x2="1414.02" y2="862.015" stroke="url(#paint12_linear_17_33)" stroke-width="35"/>
<circle cx="1020.98" cy="1240.31" r="145.019" fill="url(#paint13_linear_17_33)"/>
<circle cx="1921.95" cy="1266.23" r="119.101" fill="url(#paint14_linear_17_33)"/>
<circle cx="1406.06" cy="873.753" r="95.651" fill="url(#paint15_linear_17_33)"/>
<circle cx="2040.44" cy="783.656" r="82.0747" fill="url(#paint16_linear_17_33)"/>
<circle cx="447.075" cy="1051.48" r="82.0747" fill="url(#paint17_linear_17_33)"/>
<circle cx="772.908" cy="613.335" r="88.2458" fill="url(#paint18_linear_17_33)"/>
<circle cx="589.628" cy="1563.06" r="60.4761" fill="url(#paint19_linear_17_33)"/>
<circle cx="1700.41" cy="553.476" r="60.4761" fill="url(#paint20_linear_17_33)"/>
<circle cx="2563.12" cy="1086.65" r="60.4761" fill="url(#paint21_linear_17_33)"/>
<circle cx="2319.98" cy="1523.56" r="60.4761" fill="url(#paint22_linear_17_33)"/>
<circle cx="1406.06" cy="1522.94" r="95.651" fill="url(#paint23_linear_17_33)"/>
<circle cx="2502.03" cy="588.651" r="95.651" fill="url(#paint24_linear_17_33)"/>
</g>
<g filter="url(#filter1_d_17_33)">
<path d="M888.802 2082.18C858.802 2082.18 836.669 2075.11 822.402 2060.98C808.269 2046.71 801.202 2024.58 801.202 1994.58V1902.98C801.202 1872.71 808.269 1850.51 822.402 1836.38C836.536 1822.25 858.536 1815.25 888.402 1815.38H936.802C961.602 1815.38 980.402 1820.58 993.202 1830.98C1006 1841.25 1013.34 1857.51 1015.2 1879.78C1015.87 1884.71 1014.94 1888.51 1012.4 1891.18C1009.87 1893.71 1006.14 1894.98 1001.2 1894.98C992.269 1894.98 987.136 1890.05 985.802 1880.18C984.602 1866.58 980.269 1857.31 972.802 1852.38C965.336 1847.31 953.336 1844.78 936.802 1844.78H888.402C873.869 1844.78 862.402 1846.58 854.002 1850.18C845.602 1853.65 839.602 1859.65 836.002 1868.18C832.402 1876.58 830.602 1888.18 830.602 1902.98V1994.58C830.602 2009.25 832.402 2020.85 836.002 2029.38C839.602 2037.78 845.602 2043.78 854.002 2047.38C862.536 2050.98 874.136 2052.78 888.802 2052.78H936.802C953.336 2052.78 965.336 2050.31 972.802 2045.38C980.269 2040.31 984.602 2030.98 985.802 2017.38C987.136 2007.51 992.269 2002.58 1001.2 2002.58C1006.14 2002.58 1009.87 2003.91 1012.4 2006.58C1014.94 2009.11 1015.87 2012.85 1015.2 2017.78C1013.34 2040.18 1006 2056.51 993.202 2066.78C980.402 2077.05 961.602 2082.18 936.802 2082.18H888.802ZM1098.42 2082.18C1093.49 2082.18 1089.75 2080.98 1087.22 2078.58C1084.82 2076.05 1083.62 2072.31 1083.62 2067.38V1830.38C1083.62 1825.31 1084.82 1821.58 1087.22 1819.18C1089.75 1816.78 1093.49 1815.58 1098.42 1815.58C1103.35 1815.58 1107.02 1816.78 1109.42 1819.18C1111.82 1821.58 1113.02 1825.31 1113.02 1830.38V2067.38C1113.02 2072.31 1111.82 2076.05 1109.42 2078.58C1107.02 2080.98 1103.35 2082.18 1098.42 2082.18ZM1208.19 2082.18C1198.32 2082.18 1193.39 2077.25 1193.39 2067.38V1830.18C1193.39 1820.31 1198.32 1815.38 1208.19 1815.38H1301.79C1325.65 1815.38 1343.85 1821.71 1356.39 1834.38C1368.92 1846.91 1375.19 1865.11 1375.19 1888.98V1900.98C1375.19 1924.85 1368.92 1943.05 1356.39 1955.58C1343.85 1968.11 1325.65 1974.38 1301.79 1974.38H1222.79V2067.38C1222.79 2077.25 1217.92 2082.18 1208.19 2082.18ZM1222.79 1944.98H1301.79C1317.52 1944.98 1328.79 1941.58 1335.59 1934.78C1342.39 1927.98 1345.79 1916.71 1345.79 1900.98V1888.98C1345.79 1873.25 1342.39 1861.98 1335.59 1855.18C1328.79 1848.25 1317.52 1844.78 1301.79 1844.78H1222.79V1944.98ZM1446.47 2082.18C1442.47 2082.18 1439 2080.71 1436.07 2077.78C1433.13 2074.85 1431.67 2071.38 1431.67 2067.38V1830.18C1431.67 1826.18 1433.13 1822.71 1436.07 1819.78C1439 1816.85 1442.47 1815.38 1446.47 1815.38C1450.47 1815.38 1453.87 1816.85 1456.67 1819.78C1459.6 1822.71 1461.07 1826.18 1461.07 1830.18V1932.38H1625.87V1830.18C1625.87 1826.18 1627.27 1822.71 1630.07 1819.78C1632.87 1816.85 1636.33 1815.38 1640.47 1815.38C1644.47 1815.38 1647.93 1816.85 1650.87 1819.78C1653.8 1822.71 1655.27 1826.18 1655.27 1830.18V2067.38C1655.27 2071.38 1653.8 2074.85 1650.87 2077.78C1647.93 2080.71 1644.47 2082.18 1640.47 2082.18C1636.33 2082.18 1632.87 2080.71 1630.07 2077.78C1627.27 2074.85 1625.87 2071.38 1625.87 2067.38V1961.78H1461.07V2067.38C1461.07 2071.38 1459.6 2074.85 1456.67 2077.78C1453.87 2080.71 1450.47 2082.18 1446.47 2082.18ZM1750.37 2082.18C1740.51 2082.18 1735.57 2077.25 1735.57 2067.38V1830.18C1735.57 1820.31 1740.51 1815.38 1750.37 1815.38H1895.97C1905.84 1815.38 1910.77 1820.31 1910.77 1830.18C1910.77 1839.91 1905.84 1844.78 1895.97 1844.78H1764.97V1932.78H1848.77C1858.64 1932.78 1863.57 1937.65 1863.57 1947.38C1863.57 1957.25 1858.64 1962.18 1848.77 1962.18H1764.97V2052.78H1895.97C1905.84 2052.78 1910.77 2057.65 1910.77 2067.38C1910.77 2077.25 1905.84 2082.18 1895.97 2082.18H1750.37ZM2145.52 2082.78C2141.65 2085.31 2137.99 2086.11 2134.52 2085.18C2131.05 2084.25 2128.05 2081.85 2125.52 2077.98L2062.32 1974.38H2000.52V2067.38C2000.52 2077.25 1995.65 2082.18 1985.92 2082.18C1976.05 2082.18 1971.12 2077.25 1971.12 2067.38V1830.18C1971.12 1820.31 1976.05 1815.38 1985.92 1815.38H2079.52C2103.39 1815.38 2121.59 1821.71 2134.12 1834.38C2146.65 1846.91 2152.92 1865.11 2152.92 1888.98V1900.98C2152.92 1921.78 2148.05 1938.31 2138.32 1950.58C2128.72 1962.85 2114.72 1970.38 2096.32 1973.18L2150.92 2062.78C2155.59 2071.05 2153.79 2077.71 2145.52 2082.78ZM2000.52 1944.98H2079.52C2095.25 1944.98 2106.52 1941.58 2113.32 1934.78C2120.12 1927.98 2123.52 1916.71 2123.52 1900.98V1888.98C2123.52 1873.25 2120.12 1861.98 2113.32 1855.18C2106.52 1848.25 2095.25 1844.78 2079.52 1844.78H2000.52V1944.98Z" fill="white"/>
</g>
<g filter="url(#filter2_d_17_33)">
<path d="M1120.65 2557.16C1111.98 2557.16 1105.15 2551.66 1100.15 2540.66L976.652 2248.16C974.152 2242.33 973.485 2237.16 974.652 2232.66C975.818 2227.99 979.652 2224.16 986.152 2221.16C999.818 2214.33 1009.48 2217.83 1015.15 2231.66L1131.9 2508.16H1117.4L1231.15 2231.66C1236.65 2217.99 1246.32 2214.49 1260.15 2221.16C1265.98 2224.16 1269.57 2227.99 1270.9 2232.66C1272.4 2237.16 1271.98 2242.33 1269.65 2248.16L1145.15 2540.66C1139.98 2551.66 1132.48 2557.16 1122.65 2557.16H1120.65ZM1356.44 2557.16C1342.44 2557.16 1335.44 2550.16 1335.44 2536.16V2239.16C1335.44 2225.16 1342.44 2218.16 1356.44 2218.16H1473.44C1503.94 2218.16 1527.27 2226.33 1543.44 2242.66C1559.77 2258.83 1567.94 2282.16 1567.94 2312.66V2327.66C1567.94 2358.16 1559.77 2381.58 1543.44 2397.91C1527.27 2414.08 1503.94 2422.16 1473.44 2422.16H1377.44V2536.16C1377.44 2550.16 1370.44 2557.16 1356.44 2557.16ZM1377.44 2380.16H1473.44C1492.44 2380.16 1505.94 2376.16 1513.94 2368.16C1521.94 2360.16 1525.94 2346.66 1525.94 2327.66V2312.66C1525.94 2293.83 1521.94 2280.41 1513.94 2272.41C1505.94 2264.24 1492.44 2260.16 1473.44 2260.16H1377.44V2380.16ZM1663.08 2557.16C1649.08 2557.16 1642.08 2550.16 1642.08 2536.16V2239.16C1642.08 2225.16 1649.08 2218.16 1663.08 2218.16C1670.25 2218.16 1677.25 2222.33 1684.08 2230.66L1885.08 2489.66H1874.58V2239.16C1874.58 2225.16 1881.58 2218.16 1895.58 2218.16C1909.58 2218.16 1916.58 2225.16 1916.58 2239.16V2536.16C1916.58 2550.16 1909.58 2557.16 1895.58 2557.16C1888.08 2557.16 1881.08 2552.99 1874.58 2544.66L1673.58 2285.66H1684.08V2536.16C1684.08 2550.16 1677.08 2557.16 1663.08 2557.16Z" fill="url(#paint25_linear_17_33)"/>
</g>
<defs>
<filter id="filter0_d_17_33" x="361" y="493" width="2266.6" height="1138.53" filterUnits="userSpaceOnUse" color-interpolation-filters="sRGB">
<feFlood flood-opacity="0" result="BackgroundImageFix"/>
<feColorMatrix in="SourceAlpha" type="matrix" values="0 0 0 0 0 0 0 0 0 0 0 0 0 0 0 0 0 0 127 0" result="hardAlpha"/>
<feOffset dy="4"/>
<feGaussianBlur stdDeviation="2"/>
<feComposite in2="hardAlpha" operator="out"/>
<feColorMatrix type="matrix" values="0 0 0 0 0 0 0 0 0 0 0 0 0 0 0 0 0 0 0.25 0"/>
<feBlend mode="normal" in2="BackgroundImageFix" result="effect1_dropShadow_17_33"/>
<feBlend mode="normal" in="SourceGraphic" in2="effect1_dropShadow_17_33" result="shape"/>
</filter>
<filter id="filter1_d_17_33" x="797.202" y="1815.18" width="1364.72" height="279.4" filterUnits="userSpaceOnUse" color-interpolation-filters="sRGB">
<feFlood flood-opacity="0" result="BackgroundImageFix"/>
<feColorMatrix in="SourceAlpha" type="matrix" values="0 0 0 0 0 0 0 0 0 0 0 0 0 0 0 0 0 0 127 0" result="hardAlpha"/>
<feOffset dy="4"/>
<feGaussianBlur stdDeviation="2"/>
<feComposite in2="hardAlpha" operator="out"/>
<feColorMatrix type="matrix" values="0 0 0 0 0 0 0 0 0 0 0 0 0 0 0 0 0 0 0.25 0"/>
<feBlend mode="normal" in2="BackgroundImageFix" result="effect1_dropShadow_17_33"/>
<feBlend mode="normal" in="SourceGraphic" in2="effect1_dropShadow_17_33" result="shape"/>
</filter>
<filter id="filter2_d_17_33" x="968.902" y="2210.91" width="951.68" height="354.25" filterUnits="userSpaceOnUse" color-interpolation-filters="sRGB">
<feFlood flood-opacity="0" result="BackgroundImageFix"/>
<feColorMatrix in="SourceAlpha" type="matrix" values="0 0 0 0 0 0 0 0 0 0 0 0 0 0 0 0 0 0 127 0" result="hardAlpha"/>
<feOffset dy="4"/>
<feGaussianBlur stdDeviation="2"/>
<feComposite in2="hardAlpha" operator="out"/>
<feColorMatrix type="matrix" values="0 0 0 0 0 0 0 0 0 0 0 0 0 0 0 0 0 0 0.25 0"/>
<feBlend mode="normal" in2="BackgroundImageFix" result="effect1_dropShadow_17_33"/>
<feBlend mode="normal" in="SourceGraphic" in2="effect1_dropShadow_17_33" result="shape"/>
</filter>
<linearGradient id="paint0_linear_17_33" x1="578.21" y1="1518.11" x2="1019.56" y2="1420.71" gradientUnits="userSpaceOnUse">
<stop stop-color="#1A2980"/>
<stop offset="1" stop-color="#26D0CE"/>
</linearGradient>
<linearGradient id="paint1_linear_17_33" x1="1008.03" y1="1114.38" x2="464.499" y2="1188.49" gradientUnits="userSpaceOnUse">
<stop stop-color="#1A2980"/>
<stop offset="1" stop-color="#26D0CE"/>
</linearGradient>
<linearGradient id="paint2_linear_17_33" x1="1392.77" y1="1443.34" x2="1026.56" y2="1426.9" gradientUnits="userSpaceOnUse">
<stop stop-color="#1A2980"/>
<stop offset="1" stop-color="#26D0CE"/>
</linearGradient>
<linearGradient id="paint3_linear_17_33" x1="1403.81" y1="794.938" x2="781.393" y2="751.432" gradientUnits="userSpaceOnUse">
<stop stop-color="#1A2980"/>
<stop offset="1" stop-color="#26D0CE"/>
</linearGradient>
<linearGradient id="paint4_linear_17_33" x1="1412.75" y1="792.248" x2="1704.19" y2="643.982" gradientUnits="userSpaceOnUse">
<stop stop-color="#1A2980"/>
<stop offset="1" stop-color="#26D0CE"/>
</linearGradient>
<linearGradient id="paint5_linear_17_33" x1="2038.55" y1="713.252" x2="1741.79" y2="611.665" gradientUnits="userSpaceOnUse">
<stop stop-color="#1A2980"/>
<stop offset="1" stop-color="#26D0CE"/>
</linearGradient>
<linearGradient id="paint6_linear_17_33" x1="2047.99" y1="719.055" x2="2498.06" y2="732.321" gradientUnits="userSpaceOnUse">
<stop stop-color="#1A2980"/>
<stop offset="1" stop-color="#26D0CE"/>
</linearGradient>
<linearGradient id="paint7_linear_17_33" x1="2559.49" y1="1041.57" x2="2032.25" y2="895.178" gradientUnits="userSpaceOnUse">
<stop stop-color="#1A2980"/>
<stop offset="1" stop-color="#26D0CE"/>
</linearGradient>
<linearGradient id="paint8_linear_17_33" x1="1920.8" y1="1151.78" x2="2029.97" y2="864.13" gradientUnits="userSpaceOnUse">
<stop stop-color="#1A2980"/>
<stop offset="1" stop-color="#26D0CE"/>
</linearGradient>
<linearGradient id="paint9_linear_17_33" x1="1907.29" y1="1168.98" x2="1397.29" y2="1016.9" gradientUnits="userSpaceOnUse">
<stop stop-color="#1A2980"/>
<stop offset="1" stop-color="#26D0CE"/>
</linearGradient>
<linearGradient id="paint10_linear_17_33" x1="2317.01" y1="1470.67" x2="1938.43" y2="1413.21" gradientUnits="userSpaceOnUse">
<stop stop-color="#1A2980"/>
<stop offset="1" stop-color="#26D0CE"/>
</linearGradient>
<linearGradient id="paint11_linear_17_33" x1="1412.42" y1="1447.56" x2="1928.76" y2="1439.06" gradientUnits="userSpaceOnUse">
<stop stop-color="#1A2980"/>
<stop offset="1" stop-color="#26D0CE"/>
</linearGradient>
<linearGradient id="paint12_linear_17_33" x1="1035.73" y1="1119.25" x2="1419.22" y2="1011.24" gradientUnits="userSpaceOnUse">
<stop stop-color="#1A2980"/>
<stop offset="1" stop-color="#26D0CE"/>
</linearGradient>
<linearGradient id="paint13_linear_17_33" x1="1020.98" y1="1095.29" x2="1020.98" y2="1385.33" gradientUnits="userSpaceOnUse">
<stop stop-color="#1A2980"/>
<stop offset="1" stop-color="#26D0CE"/>
</linearGradient>
<linearGradient id="paint14_linear_17_33" x1="1921.95" y1="1147.13" x2="1921.95" y2="1385.33" gradientUnits="userSpaceOnUse">
<stop stop-color="#1A2980"/>
<stop offset="1" stop-color="#26D0CE"/>
</linearGradient>
<linearGradient id="paint15_linear_17_33" x1="1406.06" y1="778.102" x2="1406.06" y2="969.404" gradientUnits="userSpaceOnUse">
<stop stop-color="#1A2980"/>
<stop offset="1" stop-color="#26D0CE"/>
</linearGradient>
<linearGradient id="paint16_linear_17_33" x1="2040.44" y1="701.581" x2="2040.44" y2="865.731" gradientUnits="userSpaceOnUse">
<stop stop-color="#1A2980"/>
<stop offset="1" stop-color="#26D0CE"/>
</linearGradient>
<linearGradient id="paint17_linear_17_33" x1="447.075" y1="969.404" x2="447.075" y2="1133.55" gradientUnits="userSpaceOnUse">
<stop stop-color="#1A2980"/>
<stop offset="1" stop-color="#26D0CE"/>
</linearGradient>
<linearGradient id="paint18_linear_17_33" x1="772.908" y1="525.089" x2="772.908" y2="701.581" gradientUnits="userSpaceOnUse">
<stop stop-color="#1A2980"/>
<stop offset="1" stop-color="#26D0CE"/>
</linearGradient>
<linearGradient id="paint19_linear_17_33" x1="589.628" y1="1502.58" x2="589.628" y2="1623.53" gradientUnits="userSpaceOnUse">
<stop stop-color="#1A2980"/>
<stop offset="1" stop-color="#26D0CE"/>
</linearGradient>
<linearGradient id="paint20_linear_17_33" x1="1700.41" y1="493" x2="1700.41" y2="613.952" gradientUnits="userSpaceOnUse">
<stop stop-color="#1A2980"/>
<stop offset="1" stop-color="#26D0CE"/>
</linearGradient>
<linearGradient id="paint21_linear_17_33" x1="2563.12" y1="1026.18" x2="2563.12" y2="1147.13" gradientUnits="userSpaceOnUse">
<stop stop-color="#1A2980"/>
<stop offset="1" stop-color="#26D0CE"/>
</linearGradient>
<linearGradient id="paint22_linear_17_33" x1="2319.98" y1="1463.09" x2="2319.98" y2="1584.04" gradientUnits="userSpaceOnUse">
<stop stop-color="#1A2980"/>
<stop offset="1" stop-color="#26D0CE"/>
</linearGradient>
<linearGradient id="paint23_linear_17_33" x1="1406.06" y1="1427.29" x2="1406.06" y2="1618.6" gradientUnits="userSpaceOnUse">
<stop stop-color="#1A2980"/>
<stop offset="1" stop-color="#26D0CE"/>
</linearGradient>
<linearGradient id="paint24_linear_17_33" x1="2502.03" y1="493" x2="2502.03" y2="684.302" gradientUnits="userSpaceOnUse">
<stop stop-color="#1A2980"/>
<stop offset="1" stop-color="#26D0CE"/>
</linearGradient>
<linearGradient id="paint25_linear_17_33" x1="1413.49" y1="2045.77" x2="1402.38" y2="2603.02" gradientUnits="userSpaceOnUse">
<stop stop-color="#1A2980"/>
<stop offset="1" stop-color="#26D0CE"/>
</linearGradient>
</defs>
</svg>
